<svg id="book" xmlns="http://www.w3.org/2000/svg" width="54" height="54" viewBox="0 0 54 54">
  <g id="Сгруппировать_3" data-name="Сгруппировать 3">
    <path id="Контур_24" data-name="Контур 24" d="M43.875,54H10.125A10.124,10.124,0,0,1,0,43.875V10.125A10.124,10.124,0,0,1,10.125,0h33.75A10.124,10.124,0,0,1,54,10.125v33.75A10.124,10.124,0,0,1,43.875,54Z" fill="#f0dafd"/>
  </g>
  <g id="Сгруппировать_4" data-name="Сгруппировать 4" transform="translate(23.907 28.126)">
    <circle id="Эллипс_53" data-name="Эллипс 53" cx="0.844" cy="0.844" r="0.844" fill="#c77efa"/>
    <circle id="Эллипс_54" data-name="Эллипс 54" cx="0.844" cy="0.844" r="0.844" transform="translate(3.937)" fill="#c77efa"/>
    <path id="Контур_25" data-name="Контур 25" d="M17.541,18.934a1.269,1.269,0,0,1-1.583,0,.844.844,0,0,0-1.23,1.156,2.883,2.883,0,0,0,4.043,0,.843.843,0,1,0-1.23-1.154Z" transform="translate(-13.938 -15.292)" fill="#c77efa"/>
  </g>
  <path id="Контур_26" data-name="Контур 26" d="M31,12.5H29.874V9.124A1.121,1.121,0,0,0,28.75,8H11.875A3.38,3.38,0,0,0,8.5,11.373V31.625A3.378,3.378,0,0,0,11.875,35H31a1.125,1.125,0,0,0,1.126-1.126V13.624A1.125,1.125,0,0,0,31,12.5ZM26.5,25.477a5.219,5.219,0,0,1-.145,1.234,5.625,5.625,0,0,1-10.957.005,5.206,5.206,0,0,1-.147-1.239V23.895c0-2.808,2.6-4.168,5.179-4.308l.366-.734a.571.571,0,0,0-.083-.643.551.551,0,0,0-.616-.17.761.761,0,0,1-.97-.5.788.788,0,0,1,.486-.991,2.05,2.05,0,0,1,2.26.628,2.161,2.161,0,0,1,.3,2.374l-.057.116c2.292.353,4.393,1.7,4.393,4.226v1.581ZM27.624,12.5H11.875a1.126,1.126,0,1,1,0-2.251H27.624Z" transform="translate(5.844 5.5)" fill="#a034f6"/>
</svg>
