<svg xmlns="http://www.w3.org/2000/svg" width="19.51" height="19.51" viewBox="0 0 19.51 19.51">
  <path id="compass" d="M0,9.505A9.505,9.505,0,1,1,9.505,19.01,9.506,9.506,0,0,1,0,9.505Zm1.6,0A7.908,7.908,0,1,0,9.505,1.6,7.908,7.908,0,0,0,1.6,9.505ZM8.155,8.77v0a.013.013,0,0,1,0-.01,1.6,1.6,0,0,1,.169-.229l0,0c.016-.019.032-.036.049-.054a1.548,1.548,0,0,1,.181-.166l0,0c.021-.017.044-.029.066-.045s.059-.043.091-.062L13.851,5.2l-3,5.12v0a.011.011,0,0,1-.006.01,1.564,1.564,0,0,1-.169.23l0,0c-.016.019-.032.036-.048.054a1.548,1.548,0,0,1-.181.165l0,0c-.021.017-.044.03-.066.045s-.059.043-.091.062L5.157,13.89Z" transform="translate(0.25 0.25)" fill="#0c9" stroke="transparent" stroke-width="0.5"/>
</svg>
