<svg id="cosmetic" xmlns="http://www.w3.org/2000/svg" width="54" height="54" viewBox="0 0 54 54">
  <g id="Сгруппировать_7" data-name="Сгруппировать 7">
    <path id="Контур_33" data-name="Контур 33" d="M43.875,54H10.125A10.124,10.124,0,0,1,0,43.875V10.125A10.124,10.124,0,0,1,10.125,0h33.75A10.124,10.124,0,0,1,54,10.125v33.75A10.124,10.124,0,0,1,43.875,54Z" fill="#ffd2cb"/>
  </g>
  <g id="Сгруппировать_8" data-name="Сгруппировать 8" transform="translate(24.751 13.5)">
    <circle id="Эллипс_55" data-name="Эллипс 55" cx="3.375" cy="3.375" r="3.375" fill="#f87662"/>
    <circle id="Эллипс_56" data-name="Эллипс 56" cx="3" cy="3" r="3" transform="translate(9.25 0.5)" fill="#f87662"/>
    <circle id="Эллипс_57" data-name="Эллипс 57" cx="3.375" cy="3.375" r="3.375" transform="translate(0 10.125)" fill="#f87662"/>
    <ellipse id="Эллипс_58" data-name="Эллипс 58" cx="3" cy="3.5" rx="3" ry="3.5" transform="translate(9.25 9.5)" fill="#f87662"/>
    <circle id="Эллипс_59" data-name="Эллипс 59" cx="3.375" cy="3.375" r="3.375" transform="translate(0 20.25)" fill="#f87662"/>
    <ellipse id="Эллипс_60" data-name="Эллипс 60" cx="3" cy="3.5" rx="3" ry="3.5" transform="translate(9.25 20.5)" fill="#f87662"/>
  </g>
  <path id="Контур_34" data-name="Контур 34" d="M9.14,14.873h5.152V27.5a2.69,2.69,0,0,1-2.577,2.779A2.689,2.689,0,0,1,9.14,27.5Z" transform="translate(6.284 10.225)" fill="#f91001"/>
  <path id="Контур_35" data-name="Контур 35" d="M16.829,12.546l-1.372,4.487a4.127,4.127,0,0,0-.135.53H9.678a4.2,4.2,0,0,0-.135-.53l-1.372-4.5a3.747,3.747,0,0,1,.506-3.279A2.837,2.837,0,0,1,10.994,8h3.014a2.842,2.842,0,0,1,2.317,1.254A3.78,3.78,0,0,1,16.829,12.546Z" transform="translate(5.5 5.5)" fill="#f91001"/>
</svg>
