<svg xmlns="http://www.w3.org/2000/svg" width="19.51" height="19.51" viewBox="0 0 19.51 19.51">
  <path id="earth" d="M9.505,0A9.505,9.505,0,1,0,19.01,9.505,9.506,9.506,0,0,0,9.505,0ZM9.113,12.427c.054.161-.416.63-.455.657s-.911-.455-1.059-.523a4.644,4.644,0,0,1-.474-1.119l-.008-.033L6.795,11.1s-.737-.55-.8-.576-.2-1.058-.244-1.153a2.26,2.26,0,0,0-.409-.44l0,0a4.192,4.192,0,0,1-.12-.962v0a2.118,2.118,0,0,1,.313-.92l-.006.009a1.562,1.562,0,0,0,.222-.807,1.591,1.591,0,0,0-.05-.4l0,.011c-.081-.134-.606.063-.606.063a1.876,1.876,0,0,0-.43-.172l-.013,0-.272-.507s-1.619-.116-1.592-.155A8.42,8.42,0,0,1,10.756,1.6l-.043,0H10.8c.29.021.558.021.71.291.03.052.573.53.56.53H10.586l-.308.268,1.354.81c-.185.051-.562.168-.816.249a1.566,1.566,0,0,0-.476.246l0,0-.535.4-.5.712.726.536s.844.643.887.67.214-.536.214-.536q-.029-.651-.055-1.3l.4.134.589-.054.657.507a4.722,4.722,0,0,1,.322.6l.013.032c-.008.09-.071.582.043.6h0a.118.118,0,0,0,.059-.017h0c.2-.1.4-.214.591-.329.092-.055.288-.229.4-.229a2.127,2.127,0,0,1-.207.534l.006-.011c-.021.032-.523.867-.737,1.222A1.532,1.532,0,0,1,13,7.745l-.7.71.242.415-.583.69a1.6,1.6,0,0,1-.158.162l0,0-.625.554s-.683.161-.724.161-.55.12-.55.12-.965-.093-1.1.415c0,.048,0,.1,0,.161a2.822,2.822,0,0,0,.32,1.309l-.007-.016Zm7.118-2.486c.122-.027-.325.57-.352.664a4.529,4.529,0,0,1-.487.57l-.76.1a1.593,1.593,0,0,1,1.423-1.308h.006c.083-.008.146-.015.17-.021Zm-4.313,2.38-.356-.526c-.029-.043.142-.227.142-.227s1.351-.2,1.478-.185.341.413.341.413-.469.611-.626.611-.981-.085-.981-.085Zm.36,1.844s-.162.068-.325.149-.366.149-.393.1a1.844,1.844,0,0,0-.358-.293l-.008,0a3.883,3.883,0,0,0-.627-.37l-.024-.01A1.65,1.65,0,0,1,10,13.288l0,0c-.035-.078.135-.311.162-.433s-.013-.486.068-.444.257-.063.433,0a1.176,1.176,0,0,1,.5.31h0a1.27,1.27,0,0,0,.337.445l0,0c.149.1.42.2.406.38s.2.406.2.406Zm.265,2.535c-.737-.327-.922-.7-.866-.768a9.166,9.166,0,0,0,.662-.648l.006-.006c.142-.2.882-1.038.882-1.038L13,13.787l.634-.375a1.563,1.563,0,0,1,.646-.212h.006l.618-.06q.055-.006.11-.007l1-.027s.905-.234.768.014C14.7,16.865,12.542,16.7,12.542,16.7Z" transform="translate(0.25 0.25)" fill="#0c9" stroke="#fff" stroke-width="0.5"/>
</svg>
