<svg id="favourite" xmlns="http://www.w3.org/2000/svg" width="54" height="54" viewBox="0 0 54 54">
  <g id="Сгруппировать_5" data-name="Сгруппировать 5">
    <path id="Контур_27" data-name="Контур 27" d="M43.875,54H10.125A10.124,10.124,0,0,1,0,43.875V10.125A10.124,10.124,0,0,1,10.125,0h33.75A10.124,10.124,0,0,1,54,10.125v33.75A10.124,10.124,0,0,1,43.875,54Z" fill="#ffd7d1"/>
  </g>
  <g id="Сгруппировать_6" data-name="Сгруппировать 6" transform="translate(13.5 13.5)">
    <path id="Контур_28" data-name="Контур 28" d="M18.125,28.667H12.58a2.273,2.273,0,0,1-2.27-1.834L8.032,13.243a2.142,2.142,0,0,1,.476-1.75,2.333,2.333,0,0,1,1.8-.827H28.2a2.33,2.33,0,0,1,1.8.827,2.148,2.148,0,0,1,.483,1.7l-.246,3.188a1.125,1.125,0,0,1-2.243-.174l.25-3.233c0-.037.008-.076.015-.113l-17.947.059,2.221,13.53,5.6-.03a1.125,1.125,0,1,1,0,2.249Z" transform="translate(-8 -6.167)" fill="#fa1f0c"/>
    <path id="Контур_29" data-name="Контур 29" d="M11.457,17a1.144,1.144,0,0,1-.5-.118,1.126,1.126,0,0,1-.5-1.51l3.375-6.75A1.126,1.126,0,1,1,15.84,9.629l-3.375,6.75A1.123,1.123,0,0,1,11.457,17Z" transform="translate(-6.396 -8)" fill="#fa1f0c"/>
    <path id="Контур_30" data-name="Контур 30" d="M20.168,17a1.126,1.126,0,0,1-1.007-.621l-3.375-6.75A1.126,1.126,0,0,1,17.8,8.621l3.375,6.75A1.124,1.124,0,0,1,20.168,17Z" transform="translate(-2.729 -8)" fill="#fa1f0c"/>
    <path id="Контур_31" data-name="Контур 31" d="M13.126,22.083A1.125,1.125,0,0,1,12,20.957v-4.5a1.126,1.126,0,0,1,2.251,0v4.5A1.126,1.126,0,0,1,13.126,22.083Z" transform="translate(-5.25 -2.958)" fill="#fa1f0c"/>
  </g>
  <path id="Контур_32" data-name="Контур 32" d="M22.646,29.5a1.122,1.122,0,0,1-.668-.221c-.68-.5-6.644-5.03-6.644-8.952a4.362,4.362,0,0,1,7.314-3.176,4.359,4.359,0,0,1,7.31,3.176c0,3.922-5.964,8.449-6.644,8.952A1.122,1.122,0,0,1,22.646,29.5Z" transform="translate(10.542 11)" fill="#fb5a45"/>
</svg>
