<svg xmlns="http://www.w3.org/2000/svg" width="365" height="365" viewBox="0 0 365 365"><g transform="translate(441.809 88.451)"><rect width="365" height="365" transform="translate(-441.809 -88.451)" fill="none"/><path d="M36.849,0A36.86,36.86,0,0,0,0,36.849v93.346a36.849,36.849,0,0,0,73.7,0V36.848A36.948,36.948,0,0,0,36.856,0h-.007ZM65.672,79.509H8.026V36.849a28.83,28.83,0,0,1,57.66,0Z" transform="matrix(0.848, 0.53, -0.53, 0.848, -268.453, 3.691)" fill="#ddd"/><path d="M81.973,26.522a39.6,39.6,0,0,0-64.489,45.4l-.1-.195Z" transform="translate(-253.053 85.509)" fill="#ddd"/><path d="M13.57,60.834a39.6,39.6,0,0,0,64.489-45.4l.1.195Z" transform="translate(-244.972 102.502)" fill="#ddd"/></g></svg>