<svg xmlns="http://www.w3.org/2000/svg" width="22.91" height="19.979" viewBox="0 0 22.91 19.979">
  <path id="heart-red" d="M22.329,5.99A6.332,6.332,0,0,0,17.245.168,8.365,8.365,0,0,0,15.662,0h-.124a6.405,6.405,0,0,0-4.359,1.739l0,0A6.415,6.415,0,0,0,6.811,0h-.1A8.6,8.6,0,0,0,5.063.178l.056-.01C.617,1.053.075,5.5.035,6.011v.017C-.2,8.457.418,14.619,10.955,19.352l.232.1.225-.1C22.52,14.363,22.577,7.862,22.33,5.99Zm-11.6-3.136.446.434.446-.434a5.527,5.527,0,0,1,3.91-1.735h.1a8.066,8.066,0,0,1,1.444.155l-.051-.009a5.288,5.288,0,0,1,4.2,4.868,7.531,7.531,0,0,1,.042.807,7.747,7.747,0,0,1-.981,3.785l.02-.04c-1.5,2.924-4.57,5.46-9.129,7.546C1.508,13.814.928,8.31,1.131,6.135V6.112c.04-.423.485-4.119,4.192-4.852A7.79,7.79,0,0,1,6.7,1.114h.114A5.527,5.527,0,0,1,10.73,2.851l0,0Z" transform="translate(0.263 0.251)" fill="#f5532c" stroke="#fff" stroke-width="0.5"/>
</svg>
