<svg xmlns="http://www.w3.org/2000/svg" width="22.81" height="19.892" viewBox="0 0 22.81 19.892">
  <path id="heart-alt" d="M22.23,5.963a6.3,6.3,0,0,0-5.061-5.8A8.327,8.327,0,0,0,15.592,0h-.123a6.377,6.377,0,0,0-4.34,1.731l0,0A6.387,6.387,0,0,0,6.781,0h-.1A8.566,8.566,0,0,0,5.04.177L5.1.168C.614,1.048.075,5.48.035,5.984V6C-.2,8.42.416,14.554,10.906,19.266l.231.1.224-.1C22.42,14.3,22.477,7.827,22.23,5.963ZM10.684,2.841l.444.432.444-.432a5.5,5.5,0,0,1,3.893-1.728h.1A8.031,8.031,0,0,1,17,1.268l-.051-.009a5.264,5.264,0,0,1,4.179,4.847,7.5,7.5,0,0,1,.042.8,7.712,7.712,0,0,1-.976,3.769l.02-.04c-1.492,2.911-4.55,5.436-9.088,7.512-9.626-4.4-10.2-9.877-10-12.043V6.085c.04-.421.483-4.1,4.174-4.831a7.756,7.756,0,0,1,1.372-.146h.114a5.5,5.5,0,0,1,3.9,1.729l0,0Z" transform="translate(0.263 0.251)" fill="#ddd" stroke="transparent" stroke-width="0.5"/>
</svg>
