<svg xmlns="http://www.w3.org/2000/svg" width="9.719" height="19.76" viewBox="0 0 9.719 19.76">
  <path id="info" d="M6.681,0C6.722,0,6.769,0,6.817,0A1.773,1.773,0,0,1,8.591,1.772c0,.032,0,.064,0,.1v0a2.5,2.5,0,0,1-2.5,2.384H6.044a1.639,1.639,0,0,1-.183.01,1.7,1.7,0,0,1-1.7-1.7,1.751,1.751,0,0,1,.012-.205v.008A2.445,2.445,0,0,1,6.611,0h.07Zm-3.918,19c-1,0-1.742-.62-1.038-3.347l1.153-4.838c.2-.775.234-1.084,0-1.084a7.579,7.579,0,0,0-2.4,1.076L.5,10.8,0,9.962C2.443,7.885,5.256,6.668,6.46,6.668c1,0,1.172,1.209.669,3.068L5.81,14.821c-.234.9-.133,1.209.1,1.209a5.19,5.19,0,0,0,2.268-1.153l-.006.006.57.775c-2.379,2.417-4.975,3.352-5.979,3.352Z" transform="translate(0.486 0.376)" fill="#0c9" stroke="#fff" stroke-width="0.75"/>
</svg>
