<svg xmlns="http://www.w3.org/2000/svg" width="16.224" height="19.868" viewBox="0 0 16.224 19.868">
  <path id="person" d="M15.2,13.941a6,6,0,0,0-3.3-2.221l-.041-.009-.951,1.6a.809.809,0,0,1-.806.806c-.444,0-.806-.363-1.23-1.431v-.026a1.008,1.008,0,1,0-2.016,0v.025c-.452,1.068-.818,1.431-1.26,1.431a.809.809,0,0,1-.806-.806l-.921-1.608A6.023,6.023,0,0,0,.54,13.922l-.011.015A3.608,3.608,0,0,0,0,15.709v.006c0,.121,0,.262,0,.4v1.613a1.612,1.612,0,0,0,1.613,1.613h12.5a1.612,1.612,0,0,0,1.613-1.613V16.118c0-.14,0-.282,0-.4a3.646,3.646,0,0,0-.537-1.791l.009.016ZM3.629,4.261c0,2.355,1.468,5.814,4.233,5.814,2.717,0,4.233-3.459,4.233-5.814V4.208a4.233,4.233,0,0,0-8.467,0v.055Z" transform="translate(0.249 0.275)" fill="#ddd" stroke="#fff" stroke-width="0.5"/>
</svg>
