<svg xmlns="http://www.w3.org/2000/svg" width="20.935" height="19.368" viewBox="0 0 20.935 19.368">
  <g id="pills-active" fill="#0c9" transform="translate(3.167 0.696)">
    <path id="Контур_1" data-name="Контур 1" d="M3.949,0A3.951,3.951,0,0,0,0,3.949v10a3.949,3.949,0,0,0,7.9,0v-10A3.96,3.96,0,0,0,3.95,0h0ZM7.038,8.521H.86V3.949a3.09,3.09,0,1,1,6.18,0Z" transform="matrix(0.848, 0.53, -0.53, 0.848, 6.32, -0.696)" />
    <path id="Контур_2" data-name="Контур 2" d="M19.691,14.074A4.244,4.244,0,0,0,12.78,18.94l-.011-.021Z" transform="translate(-2.934 -3.158)" />
    <path id="Контур_3" data-name="Контур 3" d="M13.57,20.3a4.244,4.244,0,0,0,6.912-4.866l.011.021Z" transform="translate(-3.279 -3.883)" />
  </g>
</svg>
