<svg xmlns="http://www.w3.org/2000/svg" width="34.02" height="33.774" viewBox="0 0 34.02 33.774">
    <g transform="translate(-91.073 -310.324)">
        <path
            d="M29.656,32,19.77,22.115a12.643,12.643,0,0,1-7.536,2.513h-.147A12.087,12.087,0,0,1,0,12.543c0-.051,0-.1,0-.152V12.4a12.4,12.4,0,1,1,24.8,0,13.068,13.068,0,0,1-2.539,7.576l.025-.036,9.886,9.886ZM12.4,3.35a9.886,9.886,0,1,0,.039,0H12.4Z"
            transform="translate(91.823 311.073)" fill="#0c9" />
        <path
            d="M29.619,33.025l-9.931-9.931a13.317,13.317,0,0,1-7.451,2.284h-.15A12.837,12.837,0,0,1-.75,12.543c0-.054,0-.108,0-.162A13.148,13.148,0,0,1,21.7,3.1a13.062,13.062,0,0,1,3.851,9.3v.011a13.792,13.792,0,0,1-2.289,7.443L33.27,29.864Zm-9.779-11.9,9.852,9.852,1.376-1.192L21.754,20.47l.493-.494-.6-.433.307-.436a12.3,12.3,0,0,0,2.1-6.714,11.648,11.648,0,0,0-23.3.005H.306l.445.012c0,.044,0,.088,0,.132A11.35,11.35,0,0,0,12.087,23.88h.144a11.819,11.819,0,0,0,7.089-2.363Zm-7.4,1A9.761,9.761,0,0,1,12.4,2.6h.313l.007.007a9.761,9.761,0,0,1,6.624,16.658A9.7,9.7,0,0,1,12.437,22.123ZM12.284,4.1a8.446,8.446,0,1,0,.154,0Z"
            transform="translate(91.823 311.073)" fill="transparent" />
    </g>
</svg>