<svg xmlns="http://www.w3.org/2000/svg" width="22.635" height="19.868" viewBox="0 0 22.635 19.868">
  <path id="shopping-basket-active" d="M20.75,8.3h.022a1.384,1.384,0,0,1,1.361,1.362v.023h0v.022a1.384,1.384,0,0,1-1.362,1.361h-.184l-1.244,7.157a1.336,1.336,0,0,1-.474.819l0,0a1.341,1.341,0,0,1-.876.324H4.139a1.342,1.342,0,0,1-.877-.325l0,0a1.335,1.335,0,0,1-.475-.813v-.008L1.544,11.067H1.36A1.326,1.326,0,0,1,.4,10.662,1.329,1.329,0,0,1,0,9.7V9.682H0V9.661A1.326,1.326,0,0,1,.4,8.705,1.329,1.329,0,0,1,1.361,8.3H20.75ZM5.238,16.947a.664.664,0,0,0,.469-.242h0a.664.664,0,0,0,.17-.445c0-.02,0-.04,0-.06v0l-.346-4.5a.664.664,0,0,0-.242-.469h0a.664.664,0,0,0-.445-.17l-.06,0h0a.664.664,0,0,0-.469.242h0a.664.664,0,0,0-.17.445c0,.02,0,.04,0,.06v0l.346,4.5a.668.668,0,0,0,.221.454h0a.669.669,0,0,0,.462.184h.008Zm4.442-.691v-4.5A.7.7,0,0,0,9,11.069H8.982a.7.7,0,0,0-.684.685v4.509a.7.7,0,0,0,.685.684H9a.706.706,0,0,0,.688-.688v0Zm4.15,0v-4.5a.7.7,0,0,0-.685-.684h-.013a.7.7,0,0,0-.684.685v4.509a.7.7,0,0,0,.685.684h.013a.706.706,0,0,0,.688-.688v0Zm3.8.053.346-4.5c0-.017,0-.037,0-.057a.669.669,0,0,0-.17-.446h0a.666.666,0,0,0-.468-.244h0l-.057,0a.669.669,0,0,0-.446.17h0a.666.666,0,0,0-.244.468v0l-.346,4.5c0,.017,0,.037,0,.057a.669.669,0,0,0,.17.446h0a.666.666,0,0,0,.468.244h.065a.7.7,0,0,0,.688-.639v0ZM5.144,3.155l-1,4.453H2.713L3.8,2.842A2.635,2.635,0,0,1,4.758,1.3l.006,0a2.689,2.689,0,0,1,1.7-.6H8.3V.686A.658.658,0,0,1,8.5.207.663.663,0,0,1,8.983,0h4.166a.658.658,0,0,1,.479.2.661.661,0,0,1,.2.48V.693h1.834a2.693,2.693,0,0,1,1.7.6l0,0a2.632,2.632,0,0,1,.956,1.532l0,.017,1.091,4.766H17.991l-1-4.453a1.426,1.426,0,0,0-.489-.776l0,0a1.322,1.322,0,0,0-.844-.3h-1.82V2.08a.7.7,0,0,1-.685.684H8.983a.658.658,0,0,1-.479-.2.661.661,0,0,1-.2-.48V2.073H6.479a1.324,1.324,0,0,0-.846.3l0,0a1.42,1.42,0,0,0-.487.77l0,.01Z" transform="translate(0.251 0.249)" fill="#0c9" stroke="transparent" stroke-width="0.5"/>
</svg>
