<svg id="container" xmlns="http://www.w3.org/2000/svg" width="54" height="54" viewBox="0 0 54 54">
  <path id="Контур_13" data-name="Контур 13" d="M43.875,54H10.125A10.124,10.124,0,0,1,0,43.875V10.125A10.124,10.124,0,0,1,10.125,0h33.75A10.124,10.124,0,0,1,54,10.125v33.75A10.124,10.124,0,0,1,43.875,54Z" fill="#f0dafd"/>
  <path id="Контур_14" data-name="Контур 14" d="M22.646,17.333c-3.635,0-7.312,1.255-7.312,3.657v3.657c0,2.585,3.679,3.937,7.312,3.937s7.312-1.352,7.312-3.937V20.99C29.958,18.59,26.279,17.333,22.646,17.333Zm0,2.251c3.071,0,4.919.975,5.061,1.406-.142.43-1.99,1.406-5.061,1.406-3.1,0-4.949-.992-5.062-1.392v0c.111-.424,1.966-1.416,5.063-1.416Zm0,6.75c-3.289,0-5.062-1.2-5.062-1.687V23.7a12.707,12.707,0,0,0,5.063.95,12.707,12.707,0,0,0,5.063-.95v.95C27.708,25.136,25.933,26.334,22.646,26.334Z" transform="translate(10.542 11.916)" fill="#c77efa"/>
  <path id="Контур_15" data-name="Контур 15" d="M23.749,12.5V11.093A3.092,3.092,0,0,0,20.656,8H14.468a3.092,3.092,0,0,0-3.093,3.093V12.5A3.385,3.385,0,0,0,8,15.874v13.5a3.385,3.385,0,0,0,3.375,3.375h7.054a4.678,4.678,0,0,1-.3-1.687V30.5h-6.75a1.129,1.129,0,0,1-1.126-1.126V27.124h5.906a3.09,3.09,0,0,0,3.093-3.093V21.218a3.092,3.092,0,0,0-3.093-3.093H10.249V15.876a1.129,1.129,0,0,1,1.126-1.126H23.749a1.129,1.129,0,0,1,1.126,1.126v5.851a16,16,0,0,1,2.249-.214V15.876A3.385,3.385,0,0,0,23.749,12.5Z" transform="translate(5.5 5.5)" fill="#a034f6"/>
</svg>
