<svg id="healthcare" xmlns="http://www.w3.org/2000/svg" width="54" height="54" viewBox="0 0 54 54">
  <path id="Контур_16" data-name="Контур 16" d="M43.875,54H10.125A10.124,10.124,0,0,1,0,43.875V10.125A10.124,10.124,0,0,1,10.125,0h33.75A10.124,10.124,0,0,1,54,10.125v33.75A10.124,10.124,0,0,1,43.875,54Z" fill="#d5f4f7"/>
  <path id="Контур_17" data-name="Контур 17" d="M21.514,35H21.5a13.71,13.71,0,0,1-2.327-.2,1.125,1.125,0,0,1,.385-2.217,11.29,11.29,0,0,0,1.942.167,1.132,1.132,0,0,1,1.132,1.126A1.119,1.119,0,0,1,21.514,35Zm3.172-1.485a1.126,1.126,0,0,1,.672-1.443,11.158,11.158,0,0,0,1.774-.83,1.125,1.125,0,1,1,1.127,1.947,13.509,13.509,0,0,1-2.13,1,1.127,1.127,0,0,1-1.443-.672ZM14.765,33.2a13.652,13.652,0,0,1-1.927-1.347,1.125,1.125,0,1,1,1.443-1.726,11.435,11.435,0,0,0,1.606,1.124A1.125,1.125,0,0,1,14.765,33.2Zm15.5-2.891a1.124,1.124,0,0,1-.138-1.585,11.446,11.446,0,0,0,1.126-1.606A1.125,1.125,0,0,1,33.2,28.248a13.521,13.521,0,0,1-1.35,1.925A1.125,1.125,0,0,1,30.261,30.312Zm-19.469-1.48a1.125,1.125,0,0,1-.974-.56,13.509,13.509,0,0,1-1-2.128,1.125,1.125,0,1,1,2.113-.776,11.245,11.245,0,0,0,.832,1.774A1.125,1.125,0,0,1,10.793,28.832Zm22.7-4.077a1.125,1.125,0,0,1-.915-1.3,11.443,11.443,0,0,0,.169-1.954,1.148,1.148,0,0,1,1.126-1.151A1.1,1.1,0,0,1,35,21.446V21.5a13.558,13.558,0,0,1-.2,2.341,1.124,1.124,0,0,1-1.3.915ZM9.126,22.637A1.113,1.113,0,0,1,8,21.527s.066-1.581.2-2.341a1.125,1.125,0,1,1,2.217.385,11.3,11.3,0,0,0-.165,1.929A1.135,1.135,0,0,1,9.126,22.637Zm22.933-5.029a11.147,11.147,0,0,0-.835-1.77A1.125,1.125,0,0,1,33.167,14.7a13.58,13.58,0,0,1,1,2.126,1.126,1.126,0,0,1-2.113.778Zm-21.853-1.3a1.124,1.124,0,0,1-.413-1.536,13.533,13.533,0,0,1,1.347-1.931,1.125,1.125,0,0,1,1.726,1.443A11.288,11.288,0,0,0,11.743,15.9a1.126,1.126,0,0,1-1.537.415ZM28.7,12.855a11.373,11.373,0,0,0-1.608-1.12,1.125,1.125,0,0,1,1.121-1.951,13.387,13.387,0,0,1,1.93,1.345A1.125,1.125,0,1,1,28.7,12.855ZM14.31,11.365a1.125,1.125,0,0,1,.407-1.537,13.518,13.518,0,0,1,2.128-1,1.124,1.124,0,0,1,.775,2.111,11.236,11.236,0,0,0-1.772.834,1.127,1.127,0,0,1-1.537-.407Zm9.109-.952a11.4,11.4,0,0,0-1.919-.164,1.142,1.142,0,0,1-1.144-1.126A1.106,1.106,0,0,1,21.459,8H21.5a13.6,13.6,0,0,1,2.3.2,1.125,1.125,0,1,1-.38,2.217Z" transform="translate(5.5 5.5)" fill="#09acc8"/>
  <path id="Контур_18" data-name="Контур 18" d="M19.032,25.5H18.47A1.972,1.972,0,0,1,16.5,23.531V21H13.969A1.972,1.972,0,0,1,12,19.031v-.562A1.972,1.972,0,0,1,13.969,16.5H16.5V13.968A1.972,1.972,0,0,1,18.47,12h.562A1.972,1.972,0,0,1,21,13.968V16.5h2.531A1.972,1.972,0,0,1,25.5,18.469v.562A1.972,1.972,0,0,1,23.532,21H21v2.531A1.973,1.973,0,0,1,19.032,25.5Z" transform="translate(8.25 8.249)" fill="#60d2e1"/>
</svg>
