<svg id="pill" xmlns="http://www.w3.org/2000/svg" width="54" height="54" viewBox="0 0 54 54">
  <path id="Контур_11" data-name="Контур 11" d="M43.875,54H10.125A10.124,10.124,0,0,1,0,43.875V10.125A10.124,10.124,0,0,1,10.125,0h33.75A10.124,10.124,0,0,1,54,10.125v33.75A10.124,10.124,0,0,1,43.875,54Z" fill="#fff1b3"/>
  <path id="Контур_12" data-name="Контур 12" d="M21.5,10.666c-6.544,0-13.5,2.168-13.5,6.188v5.624c0,4.02,6.956,6.188,13.5,6.188S35,26.5,35,22.479V16.854C35,12.836,28.044,10.666,21.5,10.666ZM32.157,15.73H10.843c1.389-1.4,5.189-2.813,10.657-2.813S30.768,14.328,32.157,15.73Zm0,2.249c-1.39,1.4-5.191,2.813-10.657,2.813s-9.268-1.411-10.657-2.813ZM21.5,26.417c-6.971,0-11.251-2.293-11.251-3.937V20.374c2.579,1.745,6.995,2.668,11.251,2.668s8.672-.923,11.251-2.67v2.106c0,1.645-4.279,3.939-11.251,3.939Z" transform="translate(5.5 7.333)" fill="#ff9c00"/>
</svg>
