<svg id="secure" xmlns="http://www.w3.org/2000/svg" width="54" height="54" viewBox="0 0 54 54">
  <path id="Контур_19" data-name="Контур 19" d="M43.875,54H10.125A10.124,10.124,0,0,1,0,43.875V10.125A10.124,10.124,0,0,1,10.125,0h33.75A10.124,10.124,0,0,1,54,10.125v33.75A10.124,10.124,0,0,1,43.875,54Z" fill="#d5f4f7"/>
  <path id="Контур_20" data-name="Контур 20" d="M28.928,16.721l-5.906-2.008a.833.833,0,0,0-.543,0l-5.906,2.008a.843.843,0,0,0-.572.8V22.04c0,5.518,6.158,8.2,6.421,8.311a.845.845,0,0,0,.66,0c.262-.113,6.419-2.794,6.419-8.311V17.519A.843.843,0,0,0,28.928,16.721Zm-2.481,4.266-3.093,3.937a1.125,1.125,0,0,1-1.617.159l-1.969-1.687a1.124,1.124,0,0,1,1.463-1.708l1.078.923L24.679,19.6a1.125,1.125,0,1,1,1.768,1.391Z" transform="translate(11 10.084)" fill="#60d2e1"/>
  <g id="Сгруппировать_2" data-name="Сгруппировать 2" transform="translate(13.5 13.5)">
    <path id="Контур_21" data-name="Контур 21" d="M23.672,34.944c-.338.034-.687.056-1.036.056H18.125c-2.835-.022-5.051-1.969-6.75-6.75S8,24.043,8,22.626c0-.518.562-1.126,2.249-1.126,2.678,0,4.5,3.375,4.5,3.375V10.813a1.688,1.688,0,0,1,3.375,0V22.344a.282.282,0,0,0,.564,0V9.688a1.688,1.688,0,0,1,3.375,0v9.247l-.709.236a3.1,3.1,0,0,0-2.1,2.936v4.511a10.759,10.759,0,0,0,4.421,8.326Z" transform="translate(-8 -8)" fill="#09acc8"/>
    <path id="Контур_22" data-name="Контур 22" d="M20.042,10.354v6.784l-3.375,1.148V10.355a1.688,1.688,0,1,1,3.375,0Z" transform="translate(-2.041 -7.541)" fill="#09acc8"/>
    <path id="Контур_23" data-name="Контур 23" d="M22.375,12.355v3.218l-.687-.236a3.029,3.029,0,0,0-1.991,0l-.7.235V12.354a1.688,1.688,0,1,1,3.375,0Z" transform="translate(-0.438 -6.167)" fill="#09acc8"/>
  </g>
</svg>
