<svg xmlns="http://www.w3.org/2000/svg" width="17.903" height="13.749" viewBox="0 0 17.903 13.749">
  <path id="shopping-basket-add" d="M11.163,12.643v-.052H7.887v.052c0,.007,0,.017,0,.026a1.087,1.087,0,1,1-2.175,0c0-.009,0-.018,0-.027h0v-.052H5.34a.7.7,0,0,1-.682-.549v0L2.474,1.7.609,1.389A.7.7,0,0,1,.75.007.67.67,0,0,1,.84.013h0L3.171.4A.7.7,0,0,1,3.738.94v0l.4,1.867,6.809.567a3.723,3.723,0,0,0-.064.678h0v0a3.855,3.855,0,0,0,.059.674l0-.023a.8.8,0,0,0-.559.761.814.814,0,0,0,.015.155V5.622L10.8,8.59a.83.83,0,0,0,.239.483.644.644,0,0,0,.45.189h0a.619.619,0,0,0,.114-.011h0a.794.794,0,0,0,.594-.767.819.819,0,0,0-.014-.151v.005l-.224-1.614a3.807,3.807,0,0,0,2.75,1.169.519.519,0,0,0,.073,0l.053,0L14.45,10.12a.233.233,0,0,1-.229.194h-8.5l.187.885H14a.7.7,0,0,1,0,1.4h-.667v.052a1.087,1.087,0,0,1-2.175,0Zm.777,0a.308.308,0,0,0,.617,0,.321.321,0,0,0,0-.053v0h-.606a.294.294,0,0,0,0,.052Zm-5.45,0a.308.308,0,0,0,.617,0,.321.321,0,0,0,0-.053v0H6.5a.283.283,0,0,0,0,.051h0ZM8.7,4.707a.794.794,0,0,0-.594.766.825.825,0,0,0,.014.152V5.62l.411,2.968a.83.83,0,0,0,.239.483.644.644,0,0,0,.45.189h0a.62.62,0,0,0,.114-.011h0a.794.794,0,0,0,.594-.767.819.819,0,0,0-.014-.151v.005L9.5,5.368a.83.83,0,0,0-.239-.483.647.647,0,0,0-.45-.189h0a.585.585,0,0,0-.115.011h0Zm-2.268,0a.793.793,0,0,0-.58.92V5.622L6.264,8.59a.83.83,0,0,0,.239.483.644.644,0,0,0,.45.189h0a.619.619,0,0,0,.114-.011h0a.794.794,0,0,0,.594-.767.824.824,0,0,0-.014-.151v.005l-.412-2.97a.83.83,0,0,0-.239-.483.645.645,0,0,0-.45-.189h0a.613.613,0,0,0-.113.011Zm5.027-.645a3.248,3.248,0,1,1,3.248,3.248A3.247,3.247,0,0,1,11.46,4.062Zm.931,0a2.317,2.317,0,1,0,2.317-2.318,2.317,2.317,0,0,0-2.317,2.318Zm1.853.927V4.527h-.462a.466.466,0,0,1,0-.931h.462V3.133a.466.466,0,1,1,.931,0V3.6h.462a.466.466,0,0,1,0,.931h-.462v.462a.466.466,0,1,1-.931,0Z" transform="translate(-0.052 -0.007)" fill="#0c9"/>
</svg>
