<svg xmlns="http://www.w3.org/2000/svg" width="19.62" height="19.618" viewBox="0 0 19.62 19.618">
  <path id="shopping-sale" d="M8.608,18.651c-.2-.226-.431-.483-.605-.516a1.565,1.565,0,0,0-.791.254l.006,0a2.3,2.3,0,0,1-.931.305H6.268a.77.77,0,0,1-.3-.059l0,0c-.4-.165-.557-.623-.71-1.067a1.661,1.661,0,0,0-.369-.721l0,0a.848.848,0,0,0-.371-.085c-.027,0-.052,0-.078,0h0c-.118,0-.242.007-.366.015s-.268.015-.4.015c-.032,0-.069,0-.107,0a1.168,1.168,0,0,1-.749-.27l0,0a1.578,1.578,0,0,1-.285-.909,1.625,1.625,0,0,1,.039-.351l0,.01A1.659,1.659,0,0,0,2.612,15a1.671,1.671,0,0,0-.091-.546l0,.012a1.644,1.644,0,0,0-.709-.366l-.011,0c-.444-.154-.9-.314-1.067-.71A1.556,1.556,0,0,1,.7,13.057a1.574,1.574,0,0,1,.288-.91l0,0a1.654,1.654,0,0,0,.248-.785v0c-.034-.175-.291-.4-.516-.605C.365,10.444,0,10.118,0,9.683s.365-.76.717-1.076c.226-.2.483-.431.516-.605A1.664,1.664,0,0,0,.98,7.211l0,.006A1.589,1.589,0,0,1,.738,5.965l0,.01c.165-.4.623-.557,1.067-.71a1.649,1.649,0,0,0,.721-.37l0,0a1.633,1.633,0,0,0,.088-.534,1.693,1.693,0,0,0-.025-.288l0,.01a1.558,1.558,0,0,1-.037-.341,1.589,1.589,0,0,1,.287-.914l0,0a1.17,1.17,0,0,1,.746-.267,1.034,1.034,0,0,1,.112.006h0c.129,0,.262.007.4.015s.249.015.366.015a.741.741,0,0,0,.076,0A.849.849,0,0,0,4.9,2.519l0,0a1.652,1.652,0,0,0,.365-.709l0-.011c.155-.444.315-.9.71-1.067A.756.756,0,0,1,6.265.679h.008A2.333,2.333,0,0,1,7.226.99L7.215.985A1.533,1.533,0,0,0,8,1.236H8c.175-.034.4-.291.605-.516C8.923.365,9.249,0,9.684,0s.76.365,1.076.718c.2.226.431.483.605.516A1.582,1.582,0,0,0,12.156.98l-.006,0a2.291,2.291,0,0,1,.932-.3H13.1a.77.77,0,0,1,.3.059l0,0c.4.165.557.623.71,1.067a1.661,1.661,0,0,0,.369.721l0,0a.842.842,0,0,0,.37.084c.027,0,.054,0,.08,0h0c.118,0,.242-.007.366-.014s.268-.015.4-.015c.032,0,.069,0,.107,0a1.172,1.172,0,0,1,.75.27l0,0a1.584,1.584,0,0,1,.284.909,1.619,1.619,0,0,1-.039.351l0-.01a1.579,1.579,0,0,0-.023.278,1.651,1.651,0,0,0,.092.546l0-.011a1.63,1.63,0,0,0,.709.365l.011,0c.444.155.9.315,1.067.71a1.554,1.554,0,0,1,.036.334,1.583,1.583,0,0,1-.287.911l0,0a1.647,1.647,0,0,0-.25.78V8c.034.175.291.4.516.605.356.317.721.642.721,1.077s-.365.761-.718,1.077c-.226.2-.483.43-.516.605a1.67,1.67,0,0,0,.254.792l0-.007a1.587,1.587,0,0,1,.246,1.251l0-.01c-.164.4-.623.557-1.067.71a1.654,1.654,0,0,0-.721.37l0,0a1.633,1.633,0,0,0-.088.534,1.692,1.692,0,0,0,.025.288l0-.01a1.556,1.556,0,0,1,.037.341,1.589,1.589,0,0,1-.287.914l0,0a1.17,1.17,0,0,1-.746.268q-.057,0-.111,0h0c-.129,0-.262-.007-.4-.015s-.249-.015-.366-.015a.747.747,0,0,0-.077,0,.843.843,0,0,0-.374.086l0,0a1.652,1.652,0,0,0-.365.709l0,.011c-.155.444-.315.9-.71,1.067a.756.756,0,0,1-.291.056H13.1a2.322,2.322,0,0,1-.952-.312l.01.006a1.525,1.525,0,0,0-.782-.25h0c-.175.034-.4.291-.605.516-.319.353-.644.718-1.08.718s-.76-.365-1.077-.717ZM11.458,5.9,7.52,13.055a.133.133,0,0,0-.017.065.134.134,0,0,0,.134.134H8.32a.132.132,0,0,0,.116-.069h0l3.933-7.157a.133.133,0,0,0,.017-.065.134.134,0,0,0-.134-.134h-.677a.134.134,0,0,0-.117.069ZM10.89,9.57a.9.9,0,0,0-.328.7V12.2a.887.887,0,0,0,.327.688l0,0a1.2,1.2,0,0,0,1.537,0l0,0a.885.885,0,0,0,.329-.689V10.268a.908.908,0,0,0-.321-.693h0a1.112,1.112,0,0,0-.745-.285h-.048a1.129,1.129,0,0,0-.749.282h0ZM7.465,6.094a.9.9,0,0,0-.328.7V8.727a.891.891,0,0,0,.327.692l0,0a1.193,1.193,0,0,0,1.54,0l0,0a.892.892,0,0,0,.332-.695V6.793a.9.9,0,0,0-.327-.7h0a1.193,1.193,0,0,0-1.545,0l0,0Zm4.017,6.215a.148.148,0,0,1-.056-.115V10.255a.147.147,0,0,1,.055-.115.231.231,0,0,1,.151-.056h.019a.234.234,0,0,1,.152.056.147.147,0,0,1,.056.115v1.938a.147.147,0,0,1-.055.115.259.259,0,0,1-.324,0h0ZM8.06,8.834A.149.149,0,0,1,8,8.718V6.781a.15.15,0,0,1,.055-.115.259.259,0,0,1,.324,0h0a.148.148,0,0,1,.056.115V8.72a.15.15,0,0,1-.055.115.259.259,0,0,1-.324,0h0Z" transform="translate(0.125 0.125)" fill="#ddd" stroke="transparent" stroke-width="0.25"/>
</svg>
