<svg id="zoo" xmlns="http://www.w3.org/2000/svg" width="54" height="54" viewBox="0 0 54 54">
  <path id="Контур_4" data-name="Контур 4" d="M43.875,54H10.125A10.124,10.124,0,0,1,0,43.875V10.125A10.124,10.124,0,0,1,10.125,0h33.75A10.124,10.124,0,0,1,54,10.125v33.75A10.124,10.124,0,0,1,43.875,54Z" fill="#fff1b3"/>
  <path id="Контур_5" data-name="Контур 5" d="M22.646,17.334c-3.635,0-7.312,1.255-7.312,3.657v3.657c0,2.585,3.679,3.937,7.312,3.937s7.312-1.353,7.312-3.939V20.989C29.958,18.589,26.279,17.334,22.646,17.334Zm0,2.249c3.071,0,4.919.975,5.061,1.406-.142.43-1.99,1.406-5.061,1.406-3.1,0-4.949-.992-5.063-1.392v0c.111-.424,1.964-1.416,5.063-1.416Zm0,6.75c-3.289,0-5.063-1.2-5.063-1.687V23.7a12.707,12.707,0,0,0,5.063.95,12.707,12.707,0,0,0,5.062-.95v.95C27.708,25.135,25.933,26.333,22.646,26.333Z" transform="translate(10.542 11.917)" fill="#fc6"/>
  <g id="Сгруппировать_1" data-name="Сгруппировать 1" transform="translate(13.498 13.5)">
    <path id="Контур_6" data-name="Контур 6" d="M26.527,18.132A7.82,7.82,0,0,0,19,12.686,7.668,7.668,0,0,0,11.655,17.6l-1.531,4.376a2.243,2.243,0,0,0,.653,2.43,2.67,2.67,0,0,0,2.924.383,12.447,12.447,0,0,1,3.071-1.013c.282-3.307,4.05-5.5,9.539-5.5a2.065,2.065,0,0,1,.27.012Z" transform="translate(-6.624 -4.778)" fill="#ff9c00"/>
    <path id="Контур_7" data-name="Контур 7" d="M12.241,12.266c-1.126-1.951-.619-3.54.26-4.048,1.09-.633,2.688.157,3.635,1.8,1.127,1.949.618,3.54-.26,4.048C14.752,14.713,13.157,13.854,12.241,12.266Z" transform="translate(-5.528 -8)" fill="#ff9c00"/>
    <path id="Контур_8" data-name="Контур 8" d="M16.905,14.063c-.879-.506-1.387-2.1-.26-4.048.947-1.639,2.545-2.428,3.635-1.8.879.506,1.387,2.1.26,4.048C19.626,13.852,18.031,14.713,16.905,14.063Z" transform="translate(-2.501 -8)" fill="#ff9c00"/>
    <path id="Контур_9" data-name="Контур 9" d="M9.123,14.971c-1.051-1.05-1.595-2.781-.6-3.778s2.732-.452,3.778.6,1.59,2.788.6,3.778C11.9,16.578,10.161,16.009,9.123,14.971Z" transform="translate(-7.999 -6.167)" fill="#ff9c00"/>
    <path id="Контур_10" data-name="Контур 10" d="M19.977,15.568c-.994-.991-.461-2.72.6-3.778s2.778-1.6,3.778-.6.454,2.729-.6,3.778S20.976,16.571,19.977,15.568Z" transform="translate(-0.126 -6.167)" fill="#ff9c00"/>
  </g>
</svg>
